<?xml version="1.0" encoding="UTF-8" standalone="no"?>
<svg
   xmlns:dc="http://purl.org/dc/elements/1.1/"
   xmlns:cc="http://creativecommons.org/ns#"
   xmlns:rdf="http://www.w3.org/1999/02/22-rdf-syntax-ns#"
   xmlns:svg="http://www.w3.org/2000/svg"
   xmlns="http://www.w3.org/2000/svg"
   xmlns:sodipodi="http://sodipodi.sourceforge.net/DTD/sodipodi-0.dtd"
   xmlns:inkscape="http://www.inkscape.org/namespaces/inkscape"
   height="32px"
   version="1.1"
   viewBox="0 0 32 32"
   width="32px"
   id="svg2"
   inkscape:version="0.48.4 r9939"
   sodipodi:docname="snowflake.svg"
   inkscape:export-filename="C:\Users\Ryan Cooper\Documents\GitHub\snow-removal\img\snowflake-32.png"
   inkscape:export-xdpi="90"
   inkscape:export-ydpi="90">
  <metadata
     id="metadata15">
    <rdf:RDF>
      <cc:Work
         rdf:about="">
        <dc:format>image/svg+xml</dc:format>
        <dc:type
           rdf:resource="http://purl.org/dc/dcmitype/StillImage" />
        <dc:title></dc:title>
      </cc:Work>
    </rdf:RDF>
  </metadata>
  <sodipodi:namedview
     pagecolor="#ffffff"
     bordercolor="#666666"
     borderopacity="1"
     objecttolerance="10"
     gridtolerance="10"
     guidetolerance="10"
     inkscape:pageopacity="0"
     inkscape:pageshadow="2"
     inkscape:window-width="1920"
     inkscape:window-height="1018"
     id="namedview13"
     showgrid="false"
     inkscape:zoom="7.375"
     inkscape:cx="-5.1525424"
     inkscape:cy="16"
     inkscape:window-x="-8"
     inkscape:window-y="-8"
     inkscape:window-maximized="1"
     inkscape:current-layer="svg2" />
  <desc
     id="desc6" />
  <defs
     id="defs8" />
  <path
     sodipodi:type="arc"
     style="color:#000000;fill:#f2f2f2;fill-opacity:1;fill-rule:nonzero;stroke:none;stroke-width:0;marker:none;visibility:visible;display:inline;overflow:visible;enable-background:accumulate"
     id="path2994"
     sodipodi:cx="16"
     sodipodi:cy="17.491526"
     sodipodi:rx="12.881356"
     sodipodi:ry="12.881356"
     d="m 28.881356,17.491526 a 12.881356,12.881356 0 1 1 -25.7627122,0 12.881356,12.881356 0 1 1 25.7627122,0 z"
     transform="translate(0.50000195,-0.9915276)" />
  <g
     style="fill:#2196f3;fill-rule:evenodd;stroke:none"
     id="icon-74-snowflake">
    <path
       inkscape:connector-curvature="0"
       id="snowflake"
       d="m 12.973206,19.319687 2.319689,-2.319689 -5.6296273,0 c -0.023562,0.06079 -0.059573,0.117628 -0.1083246,0.16638 L 8.1342086,18.587112 C 7.9364758,18.784845 7.6256245,18.779114 7.4303623,18.583851 7.2408107,18.3943 7.2336404,18.073467 7.4271018,17.880005 l 0.8800073,-0.880007 -0.7989031,0 c -0.281589,0 -0.5082041,-0.223858 -0.5082041,-0.5 0,-0.268066 0.2275307,-0.5 0.5082041,-0.5 l 0.7525163,0 -0.8336205,-0.83362 c -0.1934614,-0.193462 -0.1862911,-0.514295 0.00326,-0.703847 0.1952622,-0.195262 0.5061135,-0.200993 0.7038463,-0.0033 l 1.4207345,1.420734 c 0.036119,0.03612 0.065245,0.07668 0.087496,0.119993 l 0,0 5.6504564,0 -2.306674,-2.306675 0,0 c -0.054,0.02092 -0.112459,0.03246 -0.173499,0.03246 l -2.009222,0 c -0.279637,0 -0.49539,-0.223857 -0.49539,-0.5 0,-0.268066 0.221794,-0.5 0.49539,-0.5 l 1.21518,0 -0.822632,-0.822632 c -0.194901,-0.194902 -0.188898,-0.516902 6.53e-4,-0.706454 0.195262,-0.195262 0.511721,-0.195386 0.706454,-6.53e-4 l 0.819169,0.819169 0,-1.208254 c 0,-0.273596 0.231934,-0.49539 0.5,-0.49539 0.276143,0 0.5,0.215753 0.5,0.49539 l 0,2.009222 c 0,0.05915 -0.01084,0.115889 -0.03055,0.168483 l 2.308228,2.308267 0,-5.6369811 0,0 c -0.04669,-0.022772 -0.09037,-0.053387 -0.128972,-0.091991 L 14.450295,8.1431842 c -0.197732,-0.1977328 -0.192001,-0.5085841 0.0033,-0.7038463 0.189551,-0.1895516 0.510385,-0.1967219 0.703846,-0.00326 l 0.8426,0.8426 0,-0.7704752 c 0,-0.281589 0.223858,-0.5082041 0.5,-0.5082041 0.268066,0 0.5,0.2275307 0.5,0.5082041 l 0,0.7989031 0.871028,-0.8710279 c 0.193461,-0.1934614 0.514294,-0.1862911 0.703846,0.00326 0.195262,0.1952622 0.200993,0.5061135 0.0033,0.7038463 l -1.420774,1.4207351 c -0.04634,0.046343 -0.09999,0.081173 -0.1574,0.1047414 l 0,5.6242313 0,0 2.308223,-2.308223 c -0.01632,-0.04833 -0.02522,-0.09993 -0.02522,-0.153518 l 0,-2.009222 c 0,-0.279636 0.223858,-0.495389 0.5,-0.495389 0.268066,0 0.5,0.221793 0.5,0.495389 l 0,1.187959 0.813843,-0.813844 c 0.194733,-0.194732 0.511192,-0.194609 0.706454,6.53e-4 0.189551,0.189553 0.195554,0.511552 6.53e-4,0.706455 l -0.837602,0.837602 1.235477,0 c 0.273595,0 0.495388,0.231933 0.495388,0.5 0,0.276142 -0.215752,0.5 -0.495388,0.5 l -2.009223,0 c -0.06652,0 -0.129981,-0.01371 -0.187935,-0.03832 l 0,0 -2.297563,2.297565 5.678884,0 c 0.02225,-0.04331 0.05138,-0.08387 0.0875,-0.119993 l 1.420734,-1.420734 c 0.197733,-0.197733 0.508584,-0.192002 0.703846,0.0033 0.189552,0.189552 0.196722,0.510385 0.0033,0.703847 l -0.833664,0.83358 0.724089,0 c 0.281589,0 0.508204,0.223857 0.508204,0.499999 0,0.268066 -0.227531,0.5 -0.508204,0.5 l -0.770475,0 0.880007,0.880007 c 0.193461,0.193462 0.186291,0.514295 -0.0033,0.703846 -0.195262,0.195263 -0.506113,0.200994 -0.703846,0.0033 l -1.420695,-1.420773 c -0.04875,-0.04875 -0.08476,-0.105591 -0.108325,-0.16638 l 0,0 -5.658055,0 2.324269,2.324269 0,0 c 0.04623,-0.0148 0.09535,-0.02283 0.146261,-0.02283 l 2.009222,0 c 0.279636,0 0.495389,0.223857 0.495389,0.5 0,0.268066 -0.221793,0.5 -0.495389,0.5 l -1.178316,0 0.795411,0.79541 c 0.194901,0.194901 0.188898,0.516902 -6.53e-4,0.706454 -0.195262,0.195262 -0.511721,0.195386 -0.706454,6.53e-4 l -0.828813,-0.828813 0,1.24512 c 0,0.273596 -0.231933,0.495389 -0.5,0.495389 -0.276142,0 -0.5,-0.215752 -0.5,-0.495389 l 0,-2.009222 c 0,-0.06911 0.0148,-0.134906 0.04124,-0.194662 l -2.309274,-2.309272 0,5.670618 0,0 c 0.0574,0.02357 0.111057,0.0584 0.1574,0.104741 l 1.420735,1.420735 c 0.197732,0.197732 0.192001,0.508584 -0.0033,0.703846 -0.189552,0.189552 -0.510385,0.196722 -0.703846,0.0033 l -0.870989,-0.871067 0,0.752516 c 0,0.281589 -0.223858,0.508204 -0.5,0.508204 -0.268066,0 -0.5,-0.227531 -0.5,-0.508204 l 0,-0.724089 -0.8426,0.8426 c -0.193461,0.193462 -0.514295,0.186292 -0.703846,-0.0033 -0.195262,-0.195262 -0.200993,-0.506114 -0.0033,-0.703846 l 1.420735,-1.420735 c 0.0386,-0.0386 0.08228,-0.06922 0.128972,-0.09199 l 0,-5.683368 -2.322459,2.322459 c 0.01924,0.05204 0.02981,0.10809 0.02981,0.166502 l 0,2.009223 c 0,0.279636 -0.223858,0.495388 -0.5,0.495388 -0.268067,0 -0.5,-0.221793 -0.5,-0.495388 l 0,-1.205538 -0.8042,0.8042 c -0.194733,0.194733 -0.511192,0.194609 -0.706454,-6.53e-4 -0.189551,-0.189551 -0.195554,-0.511553 -6.53e-4,-0.706454 l 0.81038,-0.81038 -1.217898,0 c -0.273596,0 -0.495389,-0.231933 -0.495389,-0.5 0,-0.276142 0.215753,-0.5 0.495389,-0.5 l 2.009222,0 c 0.06178,0 0.120915,0.01183 0.175454,0.03322 l 0,0 z m 3.526796,8.680311 c 6.351275,0 11.5,-5.148725 11.5,-11.5 0,-6.351275 -5.148725,-11.4999999 -11.5,-11.4999999 -6.351275,0 -11.5000001,5.1487249 -11.5000001,11.4999999 0,6.351275 5.1487251,11.5 11.5000001,11.5 l 0,0 z" />
  </g>
</svg>
